<?xml version="1.0" encoding="iso-8859-1"?>
<!-- Uploaded to: SVG Repo, www.svgrepo.com, Generator: SVG Repo Mixer Tools -->
<svg fill="#000000" height="800px" width="800px" version="1.1" id="Layer_1" xmlns="http://www.w3.org/2000/svg" xmlns:xlink="http://www.w3.org/1999/xlink" 
	 viewBox="0 0 512 512" xml:space="preserve">
<g transform="translate(1 1)">
	<g>
		<g>
			<path d="M497.347,391.533h-3.413V101.4c0-18.773-15.36-34.133-34.133-34.133H50.2c-18.773,0-34.133,15.36-34.133,34.133v290.133
				h-3.413C4.973,391.533-1,397.507-1,405.187v23.893c0,7.68,5.973,13.653,13.653,13.653h484.693c7.68,0,13.653-5.973,13.653-13.653
				v-23.893C511,397.507,505.027,391.533,497.347,391.533z M33.133,101.4c0-9.387,7.68-17.067,17.067-17.067h409.6
				c9.387,0,17.067,7.68,17.067,17.067v290.133H299.373l-1.707,5.973c-0.107,0.107-0.227,0.227-0.358,0.355
				c-0.922,0.898-2.415,2.205-3.908,2.205h-68.267c-1.28,0-2.133-0.213-2.773-0.64c-0.64-0.427-1.067-1.067-1.493-1.92l-1.707-5.973
				H33.133V101.4z M493.933,425.667H16.067V408.6h192c4.267,5.12,10.24,8.533,17.067,8.533H293.4c6.827,0,12.8-3.413,17.067-8.533
				h183.467V425.667z"/>
			<path d="M459.8,365.933v-256c0-5.12-3.413-8.533-8.533-8.533H58.733c-5.12,0-8.533,3.413-8.533,8.533v256
				c0,5.12,3.413,8.533,8.533,8.533h392.533C456.387,374.467,459.8,371.053,459.8,365.933z M442.733,357.4H67.267V118.467h375.467
				V357.4z"/>
			<path d="M109.933,280.6c5.12,0,8.533-3.413,8.533-8.533v-25.6H152.6v25.6c0,5.12,3.413,8.533,8.533,8.533
				s8.533-3.413,8.533-8.533V203.8c0-5.12-3.413-8.533-8.533-8.533s-8.533,3.413-8.533,8.533v25.6h-34.133v-25.6
				c0-5.12-3.413-8.533-8.533-8.533s-8.533,3.413-8.533,8.533v68.267C101.4,277.187,104.813,280.6,109.933,280.6z"/>
			<path d="M195.267,212.333h17.067v59.733c0,5.12,3.413,8.533,8.533,8.533s8.533-3.413,8.533-8.533v-59.733h17.067
				c5.12,0,8.533-3.413,8.533-8.533s-3.413-8.533-8.533-8.533h-51.2c-5.12,0-8.533,3.413-8.533,8.533
				S190.147,212.333,195.267,212.333z"/>
			<path d="M280.6,212.333h17.067v59.733c0,5.12,3.413,8.533,8.533,8.533s8.533-3.413,8.533-8.533v-59.733H331.8
				c5.12,0,8.533-3.413,8.533-8.533s-3.413-8.533-8.533-8.533h-51.2c-5.12,0-8.533,3.413-8.533,8.533S275.48,212.333,280.6,212.333z
				"/>
			<path d="M365.933,280.6c5.12,0,8.533-3.413,8.533-8.533V249.88h10.24c14.507,0,27.307-12.8,27.307-27.307
				c0-14.507-11.947-27.307-27.307-27.307h-18.773c-5.12,0-8.533,3.413-8.533,8.533v68.267
				C357.4,277.187,360.813,280.6,365.933,280.6z M374.467,212.333h10.24c5.973,0,10.24,5.973,10.24,11.093
				c0,5.12-4.267,10.24-10.24,10.24h-10.24V212.333z"/>
		</g>
	</g>
</g>
</svg>